<svg xmlns="http://www.w3.org/2000/svg" version="1.0" width="512.000000pt" height="512.000000pt" viewBox="0 0 512.000000 512.000000" preserveAspectRatio="xMidYMid meet">

<g transform="translate(0.000000,512.000000) scale(0.100000,-0.100000)" fill="#ffffff" stroke="none">
<path d="M1007 4996 c-21 -21 -61 -151 -83 -271 -29 -158 -9 -427 40 -546 5 -11 -8 -34 -37 -70 -161 -198 -251 -419 -277 -679 -20 -195 14 -540 71 -726 94 -307 269 -546 514 -702 116 -74 311 -154 480 -196 85 -21 328 -66 356 -66 5 0 -9 -24 -32 -52 -56 -71 -113 -195 -135 -295 l-19 -82 -90 -30 c-176 -58 -320 -63 -464 -15 -149 50 -242 128 -357 300 -95 143 -187 230 -298 284 -132 63 -277 73 -328 22 -18 -18 -19 -22 -5 -48 19 -36 54 -68 139 -128 128 -90 232 -227 310 -408 53 -123 93 -182 172 -255 77 -70 188 -132 296 -164 104 -30 373 -38 508 -15 50 9 97 16 102 16 6 0 10 -70 10 -190 0 -166 3 -199 21 -253 54 -162 182 -276 343 -306 37 -7 206 -11 436 -11 301 0 387 3 433 15 171 45 301 177 336 343 18 86 15 768 -4 877 -26 148 -84 275 -164 360 -38 41 -45 37 109 59 713 100 1126 449 1258 1066 45 209 58 541 27 714 -37 208 -143 434 -271 576 l-34 38 26 88 c25 82 27 103 28 269 0 132 -4 199 -16 250 -26 112 -59 215 -75 230 -29 30 -186 11 -339 -40 -106 -35 -274 -119 -413 -205 l-115 -71 -135 30 c-211 47 -348 62 -586 68 -293 7 -480 -11 -757 -74 l-116 -26 -86 57 c-47 31 -88 56 -90 56 -2 0 -35 18 -74 40 -162 93 -379 167 -522 177 -63 5 -79 3 -93 -11z" fill="#ffffff"/>
</g>
</svg>