<?xml version="1.0" standalone="no"?>
<!DOCTYPE svg PUBLIC "-//W3C//DTD SVG 20010904//EN"
 "http://www.w3.org/TR/2001/REC-SVG-20010904/DTD/svg10.dtd">
<svg version="1.0" xmlns="http://www.w3.org/2000/svg"
 width="225.000000pt" height="225.000000pt" viewBox="0 0 225.000000 225.000000"
 preserveAspectRatio="xMidYMid meet">

<g transform="translate(0.000000,225.000000) scale(0.100000,-0.100000)"
fill="#000000" stroke="none">
<path d="M0 1125 l0 -1125 548 1 c494 1 537 2 442 14 -390 47 -740 314 -893
680 -65 153 -80 233 -81 405 -1 200 10 269 67 426 64 176 216 373 382 497 148
110 360 196 535 216 50 6 -105 9 -462 10 l-538 1 0 -1125z"/>
<path d="M1210 2240 c327 -19 660 -212 844 -488 91 -137 157 -303 181 -457 11
-70 13 -17 14 438 l1 517 -577 -2 c-332 0 -529 -4 -463 -8z"/>
<path d="M1005 2069 c-196 -26 -400 -127 -544 -270 -187 -186 -281 -417 -281
-688 l0 -103 68 8 c67 9 249 8 287 0 19 -5 20 -1 17 85 -4 103 10 154 64 245
35 58 35 59 25 120 -15 82 -14 194 2 224 11 22 19 25 63 24 56 -2 133 -36 188
-84 l34 -31 100 21 c126 25 168 25 293 -1 l100 -20 36 32 c47 40 133 80 188
87 36 4 45 1 59 -19 21 -30 22 -184 2 -251 -14 -44 -13 -49 5 -72 11 -14 34
-56 51 -93 29 -62 31 -77 31 -168 l0 -100 141 0 141 1 -1 119 c-1 194 -46 347
-149 506 -55 86 -186 219 -265 271 -104 68 -240 127 -326 142 -151 27 -212 30
-329 15z"/>
<path d="M2235 964 c-22 -211 -168 -492 -336 -649 -191 -179 -431 -284 -704
-308 -22 -2 206 -4 508 -5 l547 -2 0 515 c0 283 -2 515 -4 515 -2 0 -7 -30
-11 -66z"/>
<path d="M295 1005 c-5 -2 -32 -6 -59 -10 -48 -6 -48 -7 -42 -38 3 -17 8 -32
10 -34 2 -2 28 6 57 18 46 19 74 23 181 23 92 1 128 4 128 13 0 6 -3 14 -7 16
-11 6 -255 17 -268 12z"/>
<path d="M1792 992 c-8 -6 31 -12 103 -16 64 -4 127 -11 141 -16 19 -8 26 -6
31 6 3 8 2 18 -2 22 -10 10 -258 14 -273 4z"/>
<path d="M1746 918 c-68 -116 -189 -191 -379 -232 l-28 -7 30 -34 c74 -85 96
-148 106 -307 l7 -97 61 30 c197 99 363 267 447 453 31 68 75 205 68 211 -11
12 -119 25 -199 25 l-88 0 -25 -42z"/>
<path d="M282 930 c-30 -10 -59 -23 -65 -29 -21 -21 52 -202 126 -311 71 -104
214 -234 327 -297 50 -27 180 -83 194 -83 3 0 6 50 6 110 l0 110 -89 0 c-135
0 -161 15 -238 133 -24 37 -62 88 -85 113 -22 24 -38 47 -35 51 4 3 26 1 49
-6 32 -10 60 -31 108 -82 36 -37 78 -73 93 -79 36 -13 151 -13 198 0 34 9 137
105 126 117 -3 2 -33 11 -67 19 -140 32 -270 116 -324 209 l-27 45 -122 -1
c-90 0 -136 -5 -175 -19z"/>
<path d="M1137 413 c-4 -3 -7 -60 -7 -125 0 -116 0 -118 23 -118 65 1 67 4 67
112 0 55 -5 108 -10 119 -10 19 -59 27 -73 12z"/>
<path d="M965 360 c-4 -6 -8 -46 -8 -90 l-2 -79 29 -5 c56 -12 56 -12 56 77 0
51 -5 88 -12 95 -15 15 -55 16 -63 2z"/>
<path d="M1312 358 c-7 -7 -12 -43 -12 -91 0 -70 2 -78 18 -74 9 3 29 8 45 11
26 6 27 8 27 74 0 72 -10 92 -45 92 -12 0 -26 -5 -33 -12z"/>
</g>
</svg>
